<svg width="466.263" height="77.441" viewBox="0 0 466.263 77.441" xmlns="http://www.w3.org/2000/svg"><g id="svgGroup" stroke-linecap="round" fill-rule="evenodd" font-size="9pt" stroke="#ffbf00" stroke-width="0.25mm" fill="#ffbf00" style="stroke:#ffbf00;stroke-width:0.25mm;fill:#ffbf00"><path d="M 34.525 2.344 L 34.818 3.711 Q 35.013 4.395 35.453 4.639 Q 35.892 4.883 36.185 4.883 A 23.664 23.664 0 0 1 37.089 5.109 Q 37.803 5.304 38.382 5.518 A 7.611 7.611 0 0 0 39.97 5.91 A 8.782 8.782 0 0 0 40.384 5.957 A 23.064 23.064 0 0 1 41.117 7.129 A 9.094 9.094 0 0 0 41.693 8.001 A 8.07 8.07 0 0 0 41.849 8.203 A 45.742 45.742 0 0 1 43.83 11.327 A 35.863 35.863 0 0 1 45.072 13.672 Q 46.101 15.809 45.462 18.267 A 9.36 9.36 0 0 1 45.072 19.434 L 45.17 20.508 A 3.35 3.35 0 0 1 45.437 20.946 Q 45.658 21.384 45.658 21.777 Q 45.658 22.363 45.462 23.438 Q 45.365 24.219 45.316 25.146 Q 45.284 25.751 45.398 26.418 A 7.652 7.652 0 0 0 45.56 27.148 L 46.244 27.93 A 7.889 7.889 0 0 0 47.687 28.49 A 5.984 5.984 0 0 0 49.271 28.711 A 7.459 7.459 0 0 0 51.506 28.385 A 6.643 6.643 0 0 0 52.787 27.832 A 60.373 60.373 0 0 0 54.976 26.541 A 52.071 52.071 0 0 0 55.716 26.074 A 19.996 19.996 0 0 1 56.691 25.406 Q 57.225 25.064 57.718 24.805 A 8.074 8.074 0 0 1 58.746 24.348 A 6.423 6.423 0 0 1 59.525 24.121 Q 61.56 22.183 63.258 20.678 A 102.777 102.777 0 0 1 63.285 20.654 A 187.595 187.595 0 0 1 66.618 17.773 A 205.225 205.225 0 0 1 66.849 17.578 A 91.759 91.759 0 0 0 73.685 11.475 A 22.335 22.335 0 0 0 77.752 5.939 A 27.45 27.45 0 0 0 78.959 3.32 Q 80.033 2.637 81.4 2.637 A 7.333 7.333 0 0 1 83.835 3.063 A 8.45 8.45 0 0 1 84.134 3.174 A 33.532 33.532 0 0 1 86.869 4.395 A 3.871 3.871 0 0 0 87.099 4.537 Q 87.215 4.604 87.323 4.652 A 2.06 2.06 0 0 0 87.406 4.688 Q 87.65 4.785 87.943 4.98 A 2.549 2.549 0 0 0 88.458 6.511 A 3.57 3.57 0 0 0 88.822 6.934 Q 89.243 7.271 89.446 7.39 A 1.032 1.032 0 0 0 89.505 7.422 L 89.896 7.617 Q 90.494 7.991 90.949 8.308 A 15.574 15.574 0 0 1 91.214 8.496 A 2.419 2.419 0 0 1 91.905 9.285 A 3.027 3.027 0 0 1 92.045 9.57 Q 92.923 12.207 94.974 13.672 A 4.753 4.753 0 0 0 94.896 14.523 A 4.522 4.522 0 0 0 95.072 15.771 A 20.694 20.694 0 0 0 95.755 17.773 A 5.006 5.006 0 0 1 95.926 18.15 A 3.673 3.673 0 0 1 96.048 18.506 A 6.055 6.055 0 0 0 96.134 18.78 Q 96.219 19.029 96.341 19.336 L 94.193 19.141 L 94.486 21.289 A 6.97 6.97 0 0 1 94.589 22.43 Q 94.596 23.121 94.479 23.87 A 11.365 11.365 0 0 1 94.242 25 A 20.502 20.502 0 0 1 93.892 26.196 Q 93.691 26.806 93.474 27.313 A 8.348 8.348 0 0 1 93.021 28.223 Q 93.182 30.637 93.21 32.223 A 35.876 35.876 0 0 1 93.216 32.861 A 26.308 26.308 0 0 1 93.148 34.805 A 21.142 21.142 0 0 1 93.021 36.035 A 15.216 15.216 0 0 1 92.467 38.57 A 13.987 13.987 0 0 1 92.386 38.818 A 23.915 23.915 0 0 1 91.778 40.436 A 29.992 29.992 0 0 1 91.263 41.602 A 43.707 43.707 0 0 1 91.325 43.899 Q 91.325 47.883 90.567 51.481 A 31.577 31.577 0 0 1 89.554 55.176 A 131.912 131.912 0 0 1 86.286 63.791 A 114.043 114.043 0 0 1 85.013 66.699 A 25.628 25.628 0 0 1 84.647 67.516 A 21.167 21.167 0 0 1 84.427 67.969 A 8.998 8.998 0 0 0 83.964 69.067 A 8.271 8.271 0 0 0 83.939 69.141 A 15.047 15.047 0 0 0 82.792 69.501 A 12.074 12.074 0 0 0 81.986 69.824 Q 81.107 70.215 80.326 70.703 A 14.114 14.114 0 0 1 78.748 71.575 A 12.319 12.319 0 0 1 78.177 71.826 A 5.876 5.876 0 0 1 75.931 72.266 Q 71.244 68.848 71.097 60.449 A 36.957 36.957 0 0 1 71.092 59.805 Q 71.092 51.558 74.662 39.063 A 1.376 1.376 0 0 0 75.248 38.052 Q 75.27 37.86 75.252 37.643 A 2.59 2.59 0 0 0 75.248 37.598 L 75.248 36.523 L 74.271 36.426 A 4.204 4.204 0 0 0 73.807 36.45 A 3.142 3.142 0 0 0 73.392 36.523 A 0.53 0.53 0 0 0 73.124 36.696 Q 72.972 36.867 72.865 37.197 A 3.1 3.1 0 0 0 72.806 37.402 A 172.448 172.448 0 0 1 68.69 40.267 A 208.729 208.729 0 0 1 66.019 42.041 Q 62.357 44.434 58.451 46.436 Q 54.545 48.438 50.492 49.756 A 27.071 27.071 0 0 1 45.521 50.889 A 22.97 22.97 0 0 1 42.63 51.074 A 14.817 14.817 0 0 1 30.577 45.354 A 22.977 22.977 0 0 1 27.884 41.113 L 27.005 39.355 L 26.029 40.918 A 11.358 11.358 0 0 0 25.867 41.198 Q 25.635 41.611 25.252 42.344 A 118.362 118.362 0 0 0 25.003 42.822 A 29.946 29.946 0 0 0 24.294 44.297 Q 23.916 45.137 23.539 46.094 Q 22.806 47.949 22.269 49.902 Q 21.732 51.855 21.927 53.32 A 22.609 22.609 0 0 0 20.339 54.936 A 26.582 26.582 0 0 0 19.632 55.762 A 8.409 8.409 0 0 0 18.021 58.887 A 1.883 1.883 0 0 0 17.919 59.226 Q 17.891 59.374 17.891 59.516 A 1.371 1.371 0 0 0 17.923 59.814 A 5.489 5.489 0 0 0 18.074 60.354 A 6.935 6.935 0 0 0 18.216 60.742 A 3.067 3.067 0 0 1 18.146 61.096 Q 18.036 61.508 17.826 61.719 A 5.721 5.721 0 0 1 17.465 62.048 A 7.32 7.32 0 0 1 17.142 62.305 A 29.771 29.771 0 0 0 16.166 63.33 A 6.722 6.722 0 0 0 15.437 64.3 A 7.658 7.658 0 0 0 15.287 64.551 Q 15.091 65.137 14.994 65.771 Q 14.91 66.317 14.826 66.754 A 18.333 18.333 0 0 1 14.798 66.895 Q 14.798 67.969 14.505 68.359 A 95.945 95.945 0 0 1 14.032 69.339 Q 13.346 70.74 12.796 71.729 A 14.237 14.237 0 0 1 12.343 72.491 Q 11.85 73.26 11.38 73.73 Q 10.697 74.414 9.964 74.658 A 4.535 4.535 0 0 1 9.171 74.841 Q 8.744 74.902 8.255 74.902 A 9.564 9.564 0 0 1 7.7 74.884 Q 7.065 74.847 6.151 74.733 A 50.9 50.9 0 0 1 5.228 74.609 A 11.652 11.652 0 0 1 3.937 72.94 Q 3.387 72.088 2.888 71.05 A 22.747 22.747 0 0 1 2.445 70.068 A 30.484 30.484 0 0 1 0.692 64.425 A 33.871 33.871 0 0 1 0.589 63.916 A 31.829 31.829 0 0 1 0 57.84 A 31.317 31.317 0 0 1 0.003 57.373 A 17.655 17.655 0 0 1 0.309 54.285 A 13.58 13.58 0 0 1 1.127 51.563 A 0.275 0.275 0 0 1 1.141 51.505 Q 1.243 51.184 2.054 49.219 A 473.373 473.373 0 0 1 2.552 48.019 Q 3.295 46.233 4.302 43.848 A 1402.518 1402.518 0 0 1 4.447 43.506 A 601.221 601.221 0 0 1 6.009 39.844 A 821.261 821.261 0 0 1 7.767 35.791 A 701.625 701.625 0 0 1 11.478 27.441 A 212.588 212.588 0 0 1 13.297 23.523 A 163.483 163.483 0 0 1 15.043 19.971 Q 16.674 16.755 17.904 14.919 A 21.493 21.493 0 0 1 18.021 14.746 A 67.62 67.62 0 0 0 19.16 12.912 A 57.85 57.85 0 0 0 19.632 12.109 A 70.229 70.229 0 0 1 20.353 10.889 A 56.875 56.875 0 0 1 21.048 9.766 A 3299.086 3299.086 0 0 1 22.086 8.069 A 2640.092 2640.092 0 0 1 23.05 6.494 A 17.88 17.88 0 0 1 24.789 4.109 A 16.262 16.262 0 0 1 25.101 3.76 Q 26.224 2.539 27.591 1.611 A 12.103 12.103 0 0 1 29.105 0.745 Q 29.883 0.367 30.79 0.043 A 19.981 19.981 0 0 1 30.912 0 A 17.576 17.576 0 0 1 32.006 0.498 A 12.84 12.84 0 0 1 32.962 1.025 A 6.725 6.725 0 0 1 34.525 2.344 Z" id="0" vector-effect="non-scaling-stroke"/><path d="M 151.356 18.825 A 8.343 8.343 0 0 0 151.322 18.555 A 17.883 17.883 0 0 1 150.977 18.405 A 15.976 15.976 0 0 1 147.953 16.65 Q 146.439 15.527 145.462 13.867 Q 145.552 14.677 145.104 14.451 A 0.937 0.937 0 0 1 145.023 14.404 A 0.838 0.838 0 0 0 145.015 14.399 Q 144.564 14.12 144.217 14.703 A 2.271 2.271 0 0 0 144.095 14.941 A 1.629 1.629 0 0 1 143.438 14.794 Q 143.184 14.682 142.921 14.487 A 4.413 4.413 0 0 1 142.435 14.063 Q 140.128 14.502 138.099 14.818 A 89.474 89.474 0 0 1 135.111 15.234 A 263.403 263.403 0 0 0 133.515 15.433 A 235.447 235.447 0 0 0 128.91 16.064 A 85.332 85.332 0 0 0 122.855 17.188 A 53.923 53.923 0 0 0 121.973 17.391 Q 120.626 17.715 119.132 18.142 A 95.677 95.677 0 0 0 115.873 19.141 A 173.716 173.716 0 0 1 113.773 19.604 A 149.334 149.334 0 0 1 111.771 20.02 A 29.706 29.706 0 0 0 110.347 20.34 A 24.666 24.666 0 0 0 108.158 20.996 A 14.23 14.23 0 0 0 105.082 22.51 Q 103.666 23.438 102.689 24.902 Q 103.177 26.563 103.373 28.174 A 44.843 44.843 0 0 0 103.861 31.299 A 14.283 14.283 0 0 0 103.939 31.677 A 15.554 15.554 0 0 0 104.789 34.326 A 7.3 7.3 0 0 0 105.499 35.626 A 8.843 8.843 0 0 0 106.791 37.109 A 43.055 43.055 0 0 1 106.183 38.667 A 33.785 33.785 0 0 1 105.375 40.479 A 255.629 255.629 0 0 1 103.91 43.457 A 65.245 65.245 0 0 0 102.494 46.484 A 35.764 35.764 0 0 0 102.158 47.278 A 40.494 40.494 0 0 0 101.224 49.805 A 2.084 2.084 0 0 0 101.208 49.802 Q 100.772 49.744 100.579 49.908 A 0.423 0.423 0 0 0 100.443 50.146 A 0.639 0.639 0 0 1 100.112 50.596 A 0.924 0.924 0 0 1 99.857 50.684 A 3.371 3.371 0 0 1 99.866 50.725 Q 100.136 52.068 99.222 53.223 A 6.125 6.125 0 0 0 98.002 55.859 Q 97.709 57.227 97.855 58.887 A 41.558 41.558 0 0 0 98.295 62.256 A 235.43 235.43 0 0 0 98.441 63.101 A 206.925 206.925 0 0 0 98.88 65.527 A 36.249 36.249 0 0 1 98.899 65.626 Q 99.035 66.366 99.128 67.039 A 22.397 22.397 0 0 1 99.271 68.359 A 3.027 3.027 0 0 1 99.849 68.698 A 1.951 1.951 0 0 1 100.589 69.775 Q 100.834 70.703 101.615 71.387 A 9.134 9.134 0 0 0 103.814 73.002 A 11.417 11.417 0 0 0 106.4 73.975 A 26.778 26.778 0 0 0 107.137 74.148 A 29.262 29.262 0 0 0 112.552 74.805 Q 115.775 74.902 118.9 74.512 A 87.363 87.363 0 0 0 120.317 74.323 Q 122.551 74.007 124.271 73.633 A 4.237 4.237 0 0 1 124.939 73.683 A 3.072 3.072 0 0 1 125.638 73.877 A 1.685 1.685 0 0 0 125.963 73.974 Q 126.308 74.042 126.733 73.99 A 3.861 3.861 0 0 0 127.103 73.926 A 318.693 318.693 0 0 1 130.558 73.291 A 237.107 237.107 0 0 1 133.695 72.754 A 35.107 35.107 0 0 0 136.026 72.293 A 27.942 27.942 0 0 0 139.115 71.387 Q 141.556 70.508 143.461 68.799 Q 144.651 67.731 145.669 66.071 A 20.164 20.164 0 0 0 146.83 63.867 A 1.685 1.685 0 0 1 146.715 63.882 Q 146.219 63.93 146 63.623 A 1.882 1.882 0 0 1 145.789 63.238 A 2.448 2.448 0 0 1 145.658 62.793 A 13.662 13.662 0 0 0 145.592 62.483 A 16.166 16.166 0 0 0 145.414 61.768 A 2.054 2.054 0 0 0 144.877 60.84 A 2.807 2.807 0 0 1 144.84 60.844 Q 144.633 60.864 144.443 60.851 A 1.749 1.749 0 0 1 143.412 60.449 A 8.325 8.325 0 0 1 143.122 60.196 A 9.447 9.447 0 0 1 142.289 59.326 A 58.873 58.873 0 0 1 141.739 58.667 A 70.524 70.524 0 0 1 141.166 57.959 A 3.808 3.808 0 0 0 140.88 57.64 A 3.033 3.033 0 0 0 139.798 56.934 Q 137.552 57.715 134.867 58.057 A 15.407 15.407 0 0 0 132.657 58.496 A 11.399 11.399 0 0 0 130.228 59.473 A 58.857 58.857 0 0 0 129.357 59.452 Q 127.606 59.423 126.228 59.513 A 22.2 22.2 0 0 0 125.052 59.619 A 688.028 688.028 0 0 0 121.048 60.107 A 46.526 46.526 0 0 1 119.804 60.246 A 54.997 54.997 0 0 1 116.898 60.449 A 15.464 15.464 0 0 1 116.806 60.453 Q 115.326 60.51 113.346 60.307 A 45.557 45.557 0 0 1 111.38 60.059 A 42.655 42.655 0 0 1 111.388 60.038 A 38.544 38.544 0 0 1 113.627 55.078 Q 114.896 52.734 116.459 50.684 A 6.504 6.504 0 0 0 117.568 50.944 Q 118.156 51.031 118.812 51.031 A 10.303 10.303 0 0 0 119.144 51.025 A 8.424 8.424 0 0 1 119.416 51.021 Q 120.044 51.021 120.592 51.118 A 4.759 4.759 0 0 1 121.732 51.465 A 1.933 1.933 0 0 1 121.938 51.353 Q 122.568 51.059 123.538 51.13 A 6.207 6.207 0 0 1 123.929 51.172 Q 124.84 51.297 125.488 51.14 A 2.152 2.152 0 0 0 126.127 50.879 A 2.823 2.823 0 0 0 126.244 50.963 Q 126.44 51.095 126.594 51.143 A 0.558 0.558 0 0 0 126.761 51.172 L 127.494 51.172 A 17.074 17.074 0 0 0 128.204 51.187 Q 128.927 51.187 129.605 51.123 A 12.014 12.014 0 0 0 131.742 50.732 A 19.381 19.381 0 0 0 135.355 49.316 A 25.87 25.87 0 0 0 138.627 47.314 A 182.684 182.684 0 0 1 141.752 45.117 Q 142.036 44.407 142.036 43.723 A 3.263 3.263 0 0 0 141.996 43.213 Q 141.849 42.285 141.459 41.504 Q 141.169 41.533 140.9 41.515 A 2.539 2.539 0 0 1 139.75 41.162 A 6.601 6.601 0 0 1 139.207 40.798 A 7.933 7.933 0 0 1 138.334 40.039 A 57.116 57.116 0 0 1 136.966 38.623 A 10.719 10.719 0 0 0 136.368 38.029 A 8.218 8.218 0 0 0 135.599 37.402 Q 135.502 37.012 135.697 36.865 Q 135.868 36.737 135.814 36.347 A 1.938 1.938 0 0 0 135.795 36.23 Q 131.791 36.328 127.64 36.719 Q 124.935 36.973 122.541 36.938 A 35.068 35.068 0 0 1 120.072 36.816 A 1.995 1.995 0 0 1 119.983 36.611 Q 119.787 36.075 119.828 35.303 Q 119.877 34.375 119.486 33.496 A 36.179 36.179 0 0 1 121.244 32.959 A 3.875 3.875 0 0 0 121.537 32.865 A 3.171 3.171 0 0 0 122.709 32.129 A 11.746 11.746 0 0 0 123.248 32.171 Q 124.28 32.226 125.014 32.062 A 3.18 3.18 0 0 0 125.687 31.836 A 2.496 2.496 0 0 1 126.774 31.592 Q 127.063 31.592 127.367 31.654 A 3.858 3.858 0 0 1 127.982 31.836 A 21.954 21.954 0 0 1 130.001 30.749 A 17.871 17.871 0 0 1 134.476 29.297 A 926.369 926.369 0 0 1 140.873 28.174 A 26.386 26.386 0 0 0 141.647 28.029 A 23.332 23.332 0 0 0 146.683 26.416 Q 148.383 25.644 149.828 24.03 A 15.157 15.157 0 0 0 151.42 21.875 A 9.252 9.252 0 0 1 151.355 21.637 Q 151.224 21.129 151.224 20.85 A 4.416 4.416 0 0 1 151.231 20.6 A 3.573 3.573 0 0 1 151.273 20.215 A 24.755 24.755 0 0 0 151.322 19.91 A 31.019 31.019 0 0 0 151.371 19.58 Q 151.409 19.309 151.356 18.825 Z" id="1" vector-effect="non-scaling-stroke"/><path d="M 180.033 47.949 L 178.959 47.656 A 19.131 19.131 0 0 0 176.448 46.447 A 23.535 23.535 0 0 0 174.759 45.85 A 29.712 29.712 0 0 1 172.839 45.181 Q 171.977 44.845 171.236 44.483 A 16.677 16.677 0 0 1 170.755 44.238 A 3.577 3.577 0 0 1 170.184 44.491 Q 169.43 44.745 168.753 44.531 Q 168.13 44.334 167.264 44.138 A 35.412 35.412 0 0 0 166.361 43.945 A 66.048 66.048 0 0 1 160.737 43.379 A 59.926 59.926 0 0 1 159.964 43.262 Q 156.888 42.773 154.056 41.504 A 3.905 3.905 0 0 0 153.679 40.781 A 3.533 3.533 0 0 0 153.568 40.625 A 0.626 0.626 0 0 0 153.198 40.39 Q 152.956 40.333 152.607 40.404 A 2.645 2.645 0 0 0 152.494 40.43 A 61.295 61.295 0 0 0 151.322 38.916 A 11.403 11.403 0 0 1 150.371 37.522 A 12.727 12.727 0 0 1 150.248 37.305 A 59.168 59.168 0 0 0 150.38 36.474 Q 150.442 36.066 150.489 35.711 A 28.271 28.271 0 0 0 150.541 35.303 A 1.768 1.768 0 0 0 150.553 35.096 Q 150.553 34.375 149.955 33.691 A 70.338 70.338 0 0 0 150.138 33.087 Q 150.394 32.227 150.541 31.641 Q 150.722 30.914 150.566 29.766 A 10.118 10.118 0 0 0 150.541 29.59 A 8.598 8.598 0 0 1 152.738 26.074 A 16.398 16.398 0 0 1 156.058 23.584 A 22.986 22.986 0 0 1 159.818 21.875 Q 161.771 21.191 163.529 20.703 A 116.617 116.617 0 0 1 169.422 18.392 A 135.551 135.551 0 0 1 171.878 17.529 A 117.095 117.095 0 0 1 180.961 14.844 A 54.265 54.265 0 0 1 190.482 13.33 Q 194.113 13.076 198.014 13.875 A 34.588 34.588 0 0 1 200.736 14.551 A 6.913 6.913 0 0 0 201.615 16.406 A 57.102 57.102 0 0 0 202.836 18.164 A 23.37 23.37 0 0 1 203.572 19.244 A 19.555 19.555 0 0 1 203.959 19.873 A 4.475 4.475 0 0 1 204.438 21.011 A 3.999 3.999 0 0 1 204.545 21.582 Q 205.521 22.461 206.107 23.486 Q 206.693 24.512 206.302 26.172 A 33.468 33.468 0 0 1 204.983 27.177 A 28.501 28.501 0 0 1 204.398 27.588 A 13.234 13.234 0 0 1 202.396 28.711 A 23.084 23.084 0 0 0 196.921 28.052 A 23.49 23.49 0 0 0 195.072 28.125 A 663.042 663.042 0 0 1 191.765 28.378 Q 189.988 28.51 188.431 28.613 A 2.949 2.949 0 0 0 187.301 27.891 A 2.956 2.956 0 0 0 186.332 27.734 Q 185.111 27.734 183.793 28.125 L 181.156 28.906 Q 180.277 29.167 179.463 29.167 A 4.843 4.843 0 0 1 178.666 29.102 A 4.837 4.837 0 0 1 177.075 29.935 A 6.182 6.182 0 0 1 176.273 30.127 Q 174.857 30.371 173.197 30.566 A 1.368 1.368 0 0 0 173.18 30.669 Q 173.16 30.832 173.192 30.951 A 0.373 0.373 0 0 0 173.392 31.201 Q 173.683 31.346 173.493 31.828 A 1.669 1.669 0 0 1 173.49 31.836 A 3.171 3.171 0 0 0 174.805 32.744 A 3.848 3.848 0 0 0 175.003 32.813 A 71.55 71.55 0 0 0 176.45 33.252 A 82.01 82.01 0 0 0 176.957 33.398 A 9.469 9.469 0 0 1 177.977 33.751 A 7.287 7.287 0 0 1 178.763 34.131 A 2.193 2.193 0 0 1 179.698 35.172 A 3.003 3.003 0 0 1 179.837 35.547 Q 181.302 35.547 182.377 36.23 A 6.253 6.253 0 0 1 183.841 37.506 A 5.817 5.817 0 0 1 184.134 37.891 Q 184.818 38.867 185.16 39.99 A 9.041 9.041 0 0 1 185.381 40.862 Q 185.502 41.47 185.502 41.992 A 2.669 2.669 0 0 0 185.61 42.245 Q 185.83 42.687 186.1 42.687 A 0.352 0.352 0 0 0 186.185 42.676 A 0.546 0.546 0 0 1 186.318 42.66 Q 186.635 42.66 187.012 43.015 A 2.609 2.609 0 0 1 187.064 43.066 A 4.735 4.735 0 0 0 187.532 44.267 Q 187.801 44.761 188.198 45.261 A 9.21 9.21 0 0 0 188.529 45.654 A 10.885 10.885 0 0 1 190.384 48.535 Q 190.552 50.633 190.648 52.335 A 110.188 110.188 0 0 1 190.677 52.881 A 8.273 8.273 0 0 1 190.688 53.305 Q 190.688 55.002 189.994 56.738 A 21.379 21.379 0 0 1 185.941 63.184 Q 183.353 66.016 180.082 68.213 Q 176.81 70.41 173.099 71.973 A 78.162 78.162 0 0 1 167.643 74.042 A 68.198 68.198 0 0 1 165.873 74.609 A 1.605 1.605 0 0 0 165.482 74.561 A 1.605 1.605 0 0 0 165.091 74.609 A 0.525 0.525 0 0 1 165.046 74.619 Q 164.713 74.671 164.896 74.121 A 3.989 3.989 0 0 1 163.917 74.761 A 3.515 3.515 0 0 1 163.187 75 Q 162.259 75.195 161.185 75.146 Q 160.111 75.098 158.988 75 A 8.455 8.455 0 0 0 158.255 74.967 Q 157.674 74.967 157.135 75.053 A 6.384 6.384 0 0 0 156.888 75.098 A 23.944 23.944 0 0 1 156.166 74.344 A 19.088 19.088 0 0 1 155.668 73.779 A 3.874 3.874 0 0 1 155.144 72.963 A 5.323 5.323 0 0 1 154.837 72.168 A 0.705 0.705 0 0 1 154.666 72.149 Q 154.359 72.072 154.398 71.68 A 1.119 1.119 0 0 0 154.402 71.621 Q 154.422 71.191 154.056 71.191 A 18.803 18.803 0 0 0 154.183 70.977 Q 154.627 70.215 154.595 70.074 A 0.062 0.062 0 0 0 154.593 70.068 A 0.28 0.28 0 0 0 154.523 69.959 Q 154.455 69.891 154.329 69.836 A 1.11 1.11 0 0 0 154.3 69.824 Q 154.056 69.727 153.861 69.58 Q 153.666 69.434 153.763 69.141 A 2.974 2.974 0 0 0 154.059 68.092 Q 154.093 67.743 154.059 67.36 A 4.552 4.552 0 0 0 154.056 67.334 A 491.517 491.517 0 0 1 153.861 65.234 Q 153.763 64.16 154.007 63.184 Q 154.252 62.207 155.423 61.621 A 21.219 21.219 0 0 0 157.904 61.77 A 18.273 18.273 0 0 0 161.722 61.377 A 28.349 28.349 0 0 0 167.255 59.607 A 26.445 26.445 0 0 0 167.337 59.57 A 55.835 55.835 0 0 0 172.367 57.031 A 60.402 60.402 0 0 1 176.516 54.863 A 54.707 54.707 0 0 1 177.103 54.59 A 4.525 4.525 0 0 1 177.47 53.761 A 3.58 3.58 0 0 1 177.933 53.125 A 11.587 11.587 0 0 1 179.056 52.051 Q 179.642 51.563 180.13 50.977 A 3.094 3.094 0 0 0 180.626 50.13 A 4.063 4.063 0 0 0 180.814 49.512 Q 180.881 49.042 180.695 48.826 A 0.492 0.492 0 0 0 180.472 48.682 Q 180.059 48.544 180.034 48.017 A 1.462 1.462 0 0 1 180.033 47.949 Z" id="2" vector-effect="non-scaling-stroke"/><path d="M 222.318 54.199 L 221.927 55.371 Q 221.341 55.957 221.244 56.299 A 0.978 0.978 0 0 1 221.08 56.618 Q 220.995 56.731 220.874 56.838 A 2.006 2.006 0 0 1 220.755 56.934 Q 220.658 58.008 220.072 59.082 A 6.686 6.686 0 0 0 219.883 59.616 A 5.292 5.292 0 0 0 219.779 60.01 A 7.634 7.634 0 0 0 219.736 60.214 Q 219.699 60.405 219.687 60.534 A 1.2 1.2 0 0 0 219.681 60.645 A 3.038 3.038 0 0 1 219.654 61.065 Q 219.567 61.69 219.193 61.914 A 2.546 2.546 0 0 1 219.242 62.415 Q 219.242 62.647 219.202 62.889 A 3.215 3.215 0 0 1 219.193 62.939 A 61.69 61.69 0 0 1 219.046 63.718 A 53.671 53.671 0 0 1 218.998 63.965 Q 218.705 65.137 218.802 65.82 A 21.046 21.046 0 0 0 219.049 66.143 Q 219.164 66.29 219.27 66.42 A 12.328 12.328 0 0 0 219.339 66.504 Q 219.56 66.769 219.661 67.194 A 2.602 2.602 0 0 1 219.681 67.285 Q 220.123 67.58 220.398 67.708 A 1.56 1.56 0 0 0 220.56 67.773 Q 220.913 68.038 221.584 68.382 A 16.346 16.346 0 0 0 221.732 68.457 L 222.611 69.434 A 9.056 9.056 0 0 1 222.715 70.246 Q 222.806 71.379 222.56 72.299 A 4.252 4.252 0 0 1 221.732 73.926 Q 220.267 75.781 216.752 75.781 L 215.58 75.781 Q 215.204 75.406 215.06 75.146 A 0.871 0.871 0 0 1 214.994 75 A 105.648 105.648 0 0 1 214.621 74.86 Q 214.09 74.658 213.724 74.512 Q 213.297 74.341 212.944 73.871 A 3.098 3.098 0 0 1 212.845 73.73 Q 211.576 73.145 210.795 72.754 L 209.916 72.266 L 209.916 71.094 A 6.234 6.234 0 0 1 208.89 69.141 Q 208.548 68.066 208.353 66.992 A 21.191 21.191 0 0 0 208.036 65.741 A 18.361 18.361 0 0 0 207.914 65.332 A 5.87 5.87 0 0 0 207.594 64.518 A 4.683 4.683 0 0 0 207.279 63.965 A 42.933 42.933 0 0 1 207.253 62.486 Q 207.253 57.78 208.353 54.395 A 169.818 169.818 0 0 1 210.65 47.783 A 154.847 154.847 0 0 1 210.99 46.875 Q 211.771 44.922 212.552 42.92 A 41.296 41.296 0 0 0 213.92 38.77 L 214.798 37.793 A 607.062 607.062 0 0 0 215.125 37.045 Q 215.592 35.974 215.921 35.205 A 105.392 105.392 0 0 1 216.819 33.173 A 114.758 114.758 0 0 1 216.849 33.105 A 39.087 39.087 0 0 0 217.261 32.108 A 34.141 34.141 0 0 0 217.386 31.787 Q 217.63 31.152 217.826 30.664 A 12.382 12.382 0 0 0 217.264 30.676 A 9.49 9.49 0 0 0 216.752 30.713 A 10.103 10.103 0 0 0 215.775 30.859 Q 215.189 30.957 214.701 31.006 A 9.808 9.808 0 0 1 213.724 31.055 A 7.656 7.656 0 0 1 213.407 31.049 Q 212.967 31.03 212.748 30.957 A 5.52 5.52 0 0 1 210.679 31.439 A 6.441 6.441 0 0 1 210.404 31.445 L 209.427 31.445 A 3.061 3.061 0 0 1 209.117 31.43 A 2.397 2.397 0 0 1 208.89 31.396 A 2.775 2.775 0 0 0 208.686 31.363 Q 208.58 31.35 208.485 31.348 A 1.615 1.615 0 0 0 208.451 31.348 A 5.306 5.306 0 0 0 207.839 31.381 Q 207.54 31.415 207.291 31.487 A 2.324 2.324 0 0 0 206.888 31.641 L 204.642 31.641 L 203.666 31.641 A 2.025 2.025 0 0 0 203.513 31.647 Q 203.439 31.653 203.355 31.663 A 4.617 4.617 0 0 0 203.177 31.689 Q 202.98 31.722 202.828 31.733 A 1.981 1.981 0 0 1 202.689 31.738 A 7.27 7.27 0 0 1 201.843 31.687 A 9.13 9.13 0 0 1 201.224 31.592 Q 200.443 31.445 199.564 30.957 Q 198.418 29.429 198.019 29.302 A 0.289 0.289 0 0 0 198.002 29.297 L 197.123 28.125 Q 197.025 27.539 196.83 27.002 A 15.53 15.53 0 0 1 196.636 26.433 Q 196.541 26.135 196.445 25.803 A 24.951 24.951 0 0 1 196.439 25.781 Q 196.048 24.805 195.707 23.682 A 7.284 7.284 0 0 1 195.473 22.615 Q 195.392 22.061 195.372 21.43 A 13.453 13.453 0 0 1 195.365 20.996 Q 195.462 20.217 195.754 19.826 A 1.244 1.244 0 0 1 195.755 19.824 A 20.755 20.755 0 0 0 195.961 19.545 Q 196.062 19.407 196.147 19.283 A 10.446 10.446 0 0 0 196.244 19.141 L 196.537 17.676 L 197.806 17.773 L 200.541 17.773 Q 203.666 17.773 206.888 17.529 A 670.193 670.193 0 0 0 213.102 17.029 A 731.971 731.971 0 0 0 213.529 16.992 A 1645.493 1645.493 0 0 1 217.484 16.602 A 616.467 616.467 0 0 1 220.569 16.309 A 684.186 684.186 0 0 1 221.634 16.211 A 41.999 41.999 0 0 1 222.214 14.96 A 36.309 36.309 0 0 1 222.416 14.551 L 223.392 14.063 Q 225.021 13.972 225.769 14.427 A 1.563 1.563 0 0 1 225.882 14.502 A 13.298 13.298 0 0 1 226.475 14.962 Q 226.74 15.18 226.961 15.389 A 7.354 7.354 0 0 1 227.103 15.527 A 218.446 218.446 0 0 0 231.449 15.088 A 72.951 72.951 0 0 0 235.892 14.453 A 220.592 220.592 0 0 1 242.582 13.574 A 58.18 58.18 0 0 1 247.498 13.208 A 51.5 51.5 0 0 1 249.076 13.184 A 34.917 34.917 0 0 1 251.353 13.256 A 31.387 31.387 0 0 1 251.712 13.281 Q 252.982 13.379 254.056 13.574 L 255.033 14.258 A 3.538 3.538 0 0 0 255.625 15.098 A 4.224 4.224 0 0 0 255.863 15.332 A 34.564 34.564 0 0 0 256.986 16.309 A 20.2 20.2 0 0 1 258.304 17.641 A 25.904 25.904 0 0 1 259.33 18.848 A 3.997 3.997 0 0 1 260.044 20.276 Q 260.382 21.472 260.209 23.145 Q 259.427 24.316 259.037 24.512 L 258.158 25.684 L 257.181 25.586 Q 256.595 25.586 256.107 25.732 Q 255.619 25.879 255.13 26.074 A 8.132 8.132 0 0 1 254.349 26.416 A 5.047 5.047 0 0 1 253.886 26.563 A 6.584 6.584 0 0 1 253.47 26.66 A 26.193 26.193 0 0 1 252.954 26.655 Q 252.441 26.645 252.078 26.613 A 7.454 7.454 0 0 1 252.054 26.611 Q 251.517 26.563 250.931 26.563 A 39.879 39.879 0 0 0 248.061 26.671 A 50.358 50.358 0 0 0 245.658 26.904 A 257.727 257.727 0 0 0 240.091 27.637 A 95.064 95.064 0 0 1 237.244 28.021 A 83.831 83.831 0 0 1 236.332 28.125 A 94.307 94.307 0 0 1 234.61 28.296 A 68.529 68.529 0 0 1 233.06 28.418 A 59.167 59.167 0 0 1 232.419 30.325 Q 232.101 31.217 231.784 32.004 A 35.553 35.553 0 0 1 231.693 32.227 Q 231.009 33.887 230.228 35.449 A 43.394 43.394 0 0 0 228.812 38.818 A 57.199 57.199 0 0 0 227.962 41.284 A 67.596 67.596 0 0 0 227.591 42.48 A 36.361 36.361 0 0 0 226.751 43.892 Q 226.371 44.565 226.066 45.185 A 21.732 21.732 0 0 0 225.98 45.361 A 13.228 13.228 0 0 0 225.312 47.047 A 16.692 16.692 0 0 0 224.955 48.34 A 11.315 11.315 0 0 0 223.596 50.472 A 9.994 9.994 0 0 0 223.197 51.416 Q 222.748 52.65 222.471 53.626 A 18.922 18.922 0 0 0 222.318 54.199 Z" id="3" vector-effect="non-scaling-stroke"/><path d="M 290.189 64.941 L 289.994 65.332 A 14.36 14.36 0 0 1 289.066 67.4 A 18.055 18.055 0 0 1 288.285 68.701 Q 287.162 70.41 285.648 71.729 Q 284.134 73.047 282.279 73.926 A 10.167 10.167 0 0 1 278.373 74.902 Q 277.436 74.686 276.952 74.444 A 1.737 1.737 0 0 1 276.664 74.268 Q 276.224 73.926 275.736 73.633 Q 275.443 73.438 275.199 73.291 Q 274.989 73.165 274.815 73.075 A 4.649 4.649 0 0 0 274.759 73.047 L 273.587 72.559 L 273.978 71.289 A 2.864 2.864 0 0 0 274.032 71.026 Q 274.122 70.431 273.88 70.068 A 2.879 2.879 0 0 0 273.683 69.811 Q 273.46 69.546 273.09 69.196 A 16.797 16.797 0 0 0 272.709 68.848 L 272.123 68.262 A 4.329 4.329 0 0 1 271.828 67.937 A 3.389 3.389 0 0 1 271.634 67.676 L 269.974 65.82 L 272.611 65.137 A 12.548 12.548 0 0 0 273.794 64.746 Q 274.955 64.292 275.58 63.708 A 2.766 2.766 0 0 0 275.882 63.379 A 2.722 2.722 0 0 0 276.298 62.572 Q 276.609 61.645 276.543 60.179 A 13.206 13.206 0 0 0 276.517 59.766 A 12.584 12.584 0 0 0 275.58 59.613 Q 274.571 59.489 273.762 59.582 A 5.015 5.015 0 0 0 273.246 59.668 A 46.492 46.492 0 0 0 270.56 60.352 A 43.58 43.58 0 0 1 266.996 61.182 A 19.38 19.38 0 0 1 264.73 61.467 A 24.516 24.516 0 0 1 263.041 61.523 A 22.19 22.19 0 0 1 262.102 61.504 A 18.215 18.215 0 0 1 261.576 61.475 Q 260.892 61.426 260.111 61.328 L 259.134 61.133 A 11.231 11.231 0 0 0 259.061 60.763 Q 258.902 60.031 258.744 59.912 A 3.421 3.421 0 0 1 258.5 59.71 A 4.12 4.12 0 0 1 258.353 59.57 Q 257.865 59.082 257.328 58.252 A 2.168 2.168 0 0 1 256.997 57.3 Q 256.957 56.943 257.013 56.534 A 4.291 4.291 0 0 1 257.084 56.152 A 5.116 5.116 0 0 1 256.658 55.164 A 4.224 4.224 0 0 1 256.498 54.395 A 10.943 10.943 0 0 0 255.619 56.836 L 255.228 57.813 L 254.252 58.008 A 0.427 0.427 0 0 0 254.107 58.131 Q 254.016 58.247 253.959 58.447 A 3.832 3.832 0 0 0 253.911 58.628 Q 253.87 58.804 253.863 58.93 A 0.905 0.905 0 0 0 253.861 58.984 L 253.373 60.645 A 3.931 3.931 0 0 1 253.128 60.87 A 3.267 3.267 0 0 1 252.982 60.986 A 3.421 3.421 0 0 0 252.738 61.189 A 4.12 4.12 0 0 0 252.591 61.328 Q 252.396 62.207 252.103 63.086 A 50.046 50.046 0 0 1 251.7 64.248 A 42.728 42.728 0 0 1 251.517 64.746 A 28.314 28.314 0 0 0 250.786 66.892 A 25.495 25.495 0 0 0 250.687 67.236 Q 250.345 68.457 250.443 69.629 L 250.052 70.703 A 4.384 4.384 0 0 1 249.421 71.327 A 3.693 3.693 0 0 1 248.978 71.631 A 20.689 20.689 0 0 1 247.806 72.266 Q 247.642 72.43 247.374 72.56 A 2.504 2.504 0 0 1 247.269 72.607 A 18.384 18.384 0 0 0 247.107 72.678 Q 246.878 72.778 246.732 72.852 L 246.439 73.926 L 245.267 74.121 A 108.382 108.382 0 0 0 244.77 74.213 Q 244.155 74.327 243.827 74.398 A 11.258 11.258 0 0 0 243.753 74.414 Q 243.314 74.512 242.728 74.512 L 241.752 74.414 A 73.094 73.094 0 0 1 241.245 73.996 Q 240.698 73.54 240.312 73.197 A 19.574 19.574 0 0 1 240.091 72.998 A 8.576 8.576 0 0 0 239.305 72.362 A 10.72 10.72 0 0 0 238.724 71.973 A 12.414 12.414 0 0 1 238.355 71.456 Q 237.822 70.663 237.748 70.215 A 38.811 38.811 0 0 0 237.65 69.653 A 29.799 29.799 0 0 0 237.552 69.141 Q 237.424 68.756 237.359 68.456 A 3.344 3.344 0 0 1 237.308 68.164 A 1.472 1.472 0 0 0 237.261 67.931 Q 237.225 67.809 237.168 67.713 A 0.687 0.687 0 0 0 237.064 67.578 L 235.795 66.406 L 236.869 65.527 L 236.966 63.867 Q 238.92 58.887 241.117 54.297 A 1161.873 1161.873 0 0 1 245.658 44.922 A 137.187 137.187 0 0 0 247.171 41.797 A 137.187 137.187 0 0 1 248.685 38.672 Q 248.594 38.397 248.588 38.037 A 3.052 3.052 0 0 1 248.587 37.988 A 1.865 1.865 0 0 1 248.625 37.628 Q 248.659 37.453 248.726 37.261 A 3.541 3.541 0 0 1 248.783 37.109 A 47.511 47.511 0 0 0 249.534 35.912 Q 249.932 35.254 250.259 34.659 A 25.574 25.574 0 0 0 250.541 34.131 A 204.966 204.966 0 0 0 251.908 31.445 A 74.317 74.317 0 0 1 253.519 28.223 A 21.05 21.05 0 0 1 254.592 26.434 A 27.041 27.041 0 0 1 255.619 25 L 257.181 24.316 A 14.936 14.936 0 0 0 257.415 24.236 Q 257.518 24.2 257.63 24.159 A 26.877 26.877 0 0 0 257.865 24.072 A 2.277 2.277 0 0 1 258.391 23.946 A 2.919 2.919 0 0 1 258.744 23.926 L 260.209 24.121 A 14.618 14.618 0 0 0 264.994 20.557 A 41.404 41.404 0 0 0 267.003 18.116 Q 267.95 16.878 268.916 15.451 A 67.813 67.813 0 0 0 269.193 15.039 L 270.17 13.672 L 271.439 14.453 A 3.512 3.512 0 0 0 271.821 14.649 Q 272.229 14.83 272.806 14.99 A 86.792 86.792 0 0 1 273.71 15.247 A 102.558 102.558 0 0 1 274.662 15.527 A 42.382 42.382 0 0 1 277.163 16.161 A 36.724 36.724 0 0 1 277.982 16.406 A 7.077 7.077 0 0 1 279.318 16.971 A 5.413 5.413 0 0 1 280.521 17.871 Q 281.107 19.434 281.205 20.215 Q 281.302 20.996 281.498 21.777 A 117.356 117.356 0 0 1 282.035 25.098 A 32.743 32.743 0 0 1 282.242 26.855 A 44.306 44.306 0 0 1 282.377 28.809 Q 282.865 30.469 283.207 32.08 Q 283.548 33.691 283.841 35.352 A 354.264 354.264 0 0 0 284.696 39.341 A 322.688 322.688 0 0 0 284.818 39.893 Q 285.306 42.09 286.087 44.043 A 10.033 10.033 0 0 1 286.36 44.046 Q 286.905 44.061 287.064 44.141 A 5.312 5.312 0 0 1 288.089 43.848 A 27.217 27.217 0 0 1 288.625 43.756 Q 288.947 43.704 289.31 43.652 L 290.384 43.555 L 290.775 44.531 Q 290.857 44.943 291.496 45.355 A 4.53 4.53 0 0 0 291.752 45.508 A 6.598 6.598 0 0 1 292.412 45.59 Q 293.186 45.729 293.607 46.045 Q 294.193 46.484 294.681 46.973 Q 295.044 47.336 295.408 47.53 A 2.231 2.231 0 0 0 295.462 47.559 L 296.927 48.145 L 296.146 49.609 A 11.588 11.588 0 0 1 294.785 51.541 A 15.419 15.419 0 0 1 293.363 52.979 A 17.202 17.202 0 0 1 289.31 55.664 A 15.827 15.827 0 0 1 289.427 56.498 A 13.684 13.684 0 0 1 289.457 56.787 A 4.619 4.619 0 0 0 289.575 57.478 A 5.683 5.683 0 0 0 289.701 57.91 Q 289.994 59.57 290.189 61.328 A 16.127 16.127 0 0 1 290.287 63.11 A 17.483 17.483 0 0 1 290.189 64.941 Z M 269.291 34.766 L 268.705 35.742 A 40.192 40.192 0 0 0 265.857 39.093 A 46.485 46.485 0 0 0 264.945 40.332 Q 263.138 42.871 261.869 45.117 L 260.697 46.875 A 25.471 25.471 0 0 0 259.623 48.633 A 7.167 7.167 0 0 1 260.405 48.545 A 6.172 6.172 0 0 1 260.746 48.535 A 5.331 5.331 0 0 0 261.586 48.471 A 4.788 4.788 0 0 0 261.771 48.438 Q 264.701 48.242 267.093 47.998 A 48.152 48.152 0 0 0 269.615 47.669 Q 270.948 47.462 272.416 47.168 A 502.546 502.546 0 0 0 271.335 42.636 A 568.496 568.496 0 0 0 270.951 41.064 Q 270.17 37.891 269.291 34.766 Z" id="4" vector-effect="non-scaling-stroke"/><path d="M 316.459 55.762 A 1.743 1.743 0 0 0 315.284 56.607 A 2.215 2.215 0 0 0 315.189 56.787 A 26.967 26.967 0 0 0 314.457 58.496 A 29.994 29.994 0 0 1 314.115 59.338 A 23.802 23.802 0 0 1 313.773 60.107 A 1.625 1.625 0 0 1 313.554 60.461 A 1.002 1.002 0 0 1 312.748 60.84 A 2.936 2.936 0 0 1 312.472 61.781 A 2.693 2.693 0 0 1 312.211 62.207 A 16.071 16.071 0 0 0 311.38 63.428 Q 310.99 64.063 310.795 64.795 Q 310.599 65.527 310.99 66.504 A 2.468 2.468 0 0 0 310.093 67.825 A 3.311 3.311 0 0 0 310.013 68.164 A 33.24 33.24 0 0 1 309.693 69.72 A 29.415 29.415 0 0 1 309.574 70.215 A 4.336 4.336 0 0 1 309.191 71.221 A 3.677 3.677 0 0 1 308.744 71.875 A 1.493 1.493 0 0 1 308.152 72.284 Q 307.597 72.506 306.716 72.467 A 6.563 6.563 0 0 1 306.595 72.461 A 1.781 1.781 0 0 0 306.527 72.558 Q 306.328 72.864 306.498 72.949 A 0.287 0.287 0 0 1 306.6 73.043 Q 306.709 73.195 306.777 73.554 A 3.678 3.678 0 0 1 306.791 73.633 A 4.802 4.802 0 0 0 306.462 73.584 Q 305.754 73.506 305.321 73.703 A 1.157 1.157 0 0 0 305.179 73.779 Q 304.642 74.121 303.861 74.219 A 6.443 6.443 0 0 1 300.785 72.168 Q 299.564 70.703 298.636 68.896 A 40.84 40.84 0 0 1 296.976 65.234 A 50.672 50.672 0 0 0 296.345 63.704 Q 296.045 63.012 295.753 62.406 A 28.478 28.478 0 0 0 295.56 62.012 A 4.873 4.873 0 0 0 295.733 60.898 Q 295.751 60.399 295.658 59.912 A 5.217 5.217 0 0 0 295.431 59.08 Q 295.249 58.588 294.974 58.203 A 1319.187 1319.187 0 0 1 299.979 47.705 A 1613.201 1613.201 0 0 1 305.423 36.523 Q 311.087 25 316.166 13.77 A 48.97 48.97 0 0 1 320.609 15.771 A 22.957 22.957 0 0 1 324.371 18.166 A 21.233 21.233 0 0 1 324.613 18.359 Q 326.42 19.824 327.689 21.729 A 10.75 10.75 0 0 1 329.349 25.977 A 2.121 2.121 0 0 1 329.289 26.136 Q 329.117 26.541 328.91 26.416 A 0.381 0.381 0 0 0 328.842 26.384 Q 328.674 26.324 328.531 26.483 A 0.698 0.698 0 0 0 328.47 26.563 A 7.313 7.313 0 0 1 328.625 26.762 Q 328.872 27.094 328.91 27.246 A 0.803 0.803 0 0 1 328.934 27.441 A 0.803 0.803 0 0 1 328.91 27.637 Q 328.866 27.813 328.861 28.109 A 4.494 4.494 0 0 0 328.861 28.174 Q 328.861 28.516 329.154 29.102 Q 328.938 29.048 328.797 29.083 A 0.312 0.312 0 0 0 328.617 29.199 A 0.235 0.235 0 0 1 328.48 29.286 Q 328.306 29.329 327.982 29.199 Q 328.339 30.182 328.247 30.838 A 1.695 1.695 0 0 1 328.226 30.957 A 4.903 4.903 0 0 1 328.001 31.716 A 4.02 4.02 0 0 1 327.787 32.178 Q 327.494 32.715 327.298 33.35 A 1.764 1.764 0 0 0 327.23 33.706 Q 327.186 34.172 327.345 34.779 A 5.27 5.27 0 0 0 327.396 34.961 A 0.934 0.934 0 0 0 327.231 34.975 Q 327.058 35.006 326.957 35.107 A 2.165 2.165 0 0 0 326.809 35.27 A 1.695 1.695 0 0 0 326.712 35.4 A 1.743 1.743 0 0 1 326.587 35.565 A 2.229 2.229 0 0 1 326.468 35.693 Q 326.332 35.829 326.07 35.755 A 0.955 0.955 0 0 1 326.029 35.742 A 23.825 23.825 0 0 1 326.249 38.965 A 23.654 23.654 0 0 1 326.224 40.039 Q 326.127 42.188 326.078 44.385 Q 326.031 46.49 326.119 48.776 A 82.4 82.4 0 0 0 326.127 48.975 Q 326.224 51.367 326.81 53.906 A 16.738 16.738 0 0 0 331.588 49.8 A 16.012 16.012 0 0 0 332.425 48.633 A 29.896 29.896 0 0 0 335.229 43.121 A 34.691 34.691 0 0 0 335.843 41.406 A 50.043 50.043 0 0 0 337.464 35.071 A 58.005 58.005 0 0 0 337.845 32.813 Q 338.529 28.223 339.31 23.438 Q 340.189 22.559 340.677 21.289 Q 341.166 20.02 341.556 18.604 L 342.337 15.771 A 15.12 15.12 0 0 1 342.934 14.018 A 12.757 12.757 0 0 1 343.314 13.184 Q 344.779 13.379 345.804 14.111 A 18.034 18.034 0 0 1 347.709 15.674 Q 348.587 16.504 349.564 17.236 A 4.557 4.557 0 0 0 350.896 17.917 A 6.219 6.219 0 0 0 352.005 18.164 A 71.959 71.959 0 0 1 353.621 20.55 A 62.074 62.074 0 0 1 354.154 21.387 A 9.008 9.008 0 0 1 355.423 24.707 A 5.912 5.912 0 0 0 354.792 26.104 A 6.881 6.881 0 0 0 354.691 26.465 A 43.582 43.582 0 0 1 354.154 28.418 Q 353.861 29.395 353.373 30.225 A 4.231 4.231 0 0 1 352.321 31.412 A 5.064 5.064 0 0 1 352.005 31.641 A 58.829 58.829 0 0 1 351.676 34.07 A 45.236 45.236 0 0 1 351.273 36.279 A 889.582 889.582 0 0 1 350.394 40.43 A 54.766 54.766 0 0 0 349.68 44.541 A 59.5 59.5 0 0 0 349.662 44.678 A 24.947 24.947 0 0 0 349.473 46.834 Q 349.442 47.51 349.442 48.221 A 34.888 34.888 0 0 0 349.466 49.512 A 3102.902 3102.902 0 0 0 348.661 51.831 A 3725.937 3725.937 0 0 0 347.806 54.297 A 59.491 59.491 0 0 0 347.112 56.425 Q 346.813 57.406 346.584 58.3 A 35.222 35.222 0 0 0 346.439 58.887 Q 344.877 60.156 343.998 61.914 A 91.493 91.493 0 0 1 342.142 65.43 Q 341.766 65.806 341.661 65.638 A 0.165 0.165 0 0 1 341.654 65.625 A 0.287 0.287 0 0 0 341.56 65.523 Q 341.408 65.414 341.049 65.346 A 3.678 3.678 0 0 0 340.97 65.332 Q 341.063 65.701 340.981 65.896 A 0.377 0.377 0 0 1 340.97 65.918 A 1.305 1.305 0 0 1 340.731 66.255 A 1.235 1.235 0 0 1 340.726 66.26 A 0.585 0.585 0 0 0 340.615 66.419 Q 340.558 66.537 340.531 66.699 A 0.733 0.733 0 0 0 340.522 66.796 Q 340.513 67.066 340.674 67.472 A 3.582 3.582 0 0 0 340.677 67.48 A 7.737 7.737 0 0 0 338.236 69.141 A 18.664 18.664 0 0 1 335.941 71.094 Q 334.72 71.973 333.011 72.266 A 4.781 4.781 0 0 1 332.389 72.329 Q 330.829 72.39 328.568 71.582 A 37.586 37.586 0 0 1 321.488 64.844 A 29.798 29.798 0 0 1 317.934 59.214 A 37.101 37.101 0 0 1 316.459 55.762 Z" id="5" vector-effect="non-scaling-stroke"/><path d="M 362.357 76.953 L 361.185 74.805 L 359.623 75.977 Q 359.142 75.702 358.807 75.452 A 4.262 4.262 0 0 1 358.548 75.244 Q 358.234 74.969 357.857 74.599 A 25.648 25.648 0 0 1 357.67 74.414 A 14.602 14.602 0 0 1 356.554 73.52 A 11.602 11.602 0 0 1 355.814 72.803 Q 355.285 72.24 355.069 71.7 A 2.061 2.061 0 0 1 354.935 71.191 L 354.837 70.215 L 353.861 70.02 Q 353.381 68.677 353.09 68.041 A 7.791 7.791 0 0 0 353.08 68.018 A 2.178 2.178 0 0 0 352.383 67.175 A 2.802 2.802 0 0 0 352.103 66.992 A 31.688 31.688 0 0 1 351.925 65.004 Q 351.724 61.443 352.484 58.872 A 11.933 11.933 0 0 1 352.494 58.838 A 33.599 33.599 0 0 1 353.714 55.457 Q 354.441 53.725 355.408 51.884 A 53.983 53.983 0 0 1 355.423 51.855 A 7.665 7.665 0 0 0 357.167 51.027 A 7.027 7.027 0 0 0 357.523 50.781 A 27.478 27.478 0 0 0 358.729 49.841 A 23.482 23.482 0 0 0 359.232 49.414 A 17.625 17.625 0 0 1 360.404 48.471 A 15.393 15.393 0 0 1 360.795 48.193 Q 361.407 47.772 361.959 47.621 A 2.454 2.454 0 0 1 362.259 47.559 L 363.138 47.07 A 17.634 17.634 0 0 1 366.287 44.187 A 20.356 20.356 0 0 1 367.142 43.604 Q 369.486 42.09 372.025 40.527 A 116.562 116.562 0 0 0 376.175 38.037 A 25.156 25.156 0 0 0 379.078 35.922 A 22.279 22.279 0 0 0 379.935 35.156 A 2.483 2.483 0 0 0 380.203 35.175 Q 380.819 35.186 381.302 34.863 A 1.723 1.723 0 0 0 381.632 34.165 Q 381.689 33.918 381.693 33.632 A 3.081 3.081 0 0 0 381.693 33.594 A 2.27 2.27 0 0 1 382.132 33.252 A 2.27 2.27 0 0 0 382.572 32.91 A 14.824 14.824 0 0 1 383.047 32.586 Q 383.622 32.208 384.427 31.738 A 4.128 4.128 0 0 0 385.249 31.12 A 3.047 3.047 0 0 0 385.99 29.98 L 388.138 27.93 L 385.209 28.027 A 126.138 126.138 0 0 0 382.901 28.149 A 147.713 147.713 0 0 0 380.472 28.32 Q 378.76 28.455 377.394 28.589 A 93.173 93.173 0 0 0 376.224 28.711 A 29.91 29.91 0 0 1 373.294 28.952 A 32.578 32.578 0 0 1 373.197 28.955 A 141.431 141.431 0 0 0 371.561 29.016 A 183.193 183.193 0 0 0 369.779 29.102 Q 366.752 27.148 365.433 23.291 A 12.779 12.779 0 0 1 364.774 20.188 Q 364.59 17.929 365.287 15.723 A 4.691 4.691 0 0 0 365.847 15.609 Q 366.184 15.518 366.459 15.381 A 12.882 12.882 0 0 1 367.435 14.941 Q 368.309 14.844 368.604 14.94 A 0.521 0.521 0 0 1 368.607 14.941 A 1.596 1.596 0 0 0 368.831 14.997 Q 369.068 15.039 369.388 15.039 A 73.805 73.805 0 0 1 371.159 14.744 Q 371.951 14.622 372.644 14.537 A 31.668 31.668 0 0 1 373.929 14.404 A 45.797 45.797 0 0 1 375.989 14.282 A 36.622 36.622 0 0 1 377.298 14.258 Q 378.959 14.258 380.521 14.404 Q 382.084 14.551 383.548 15.039 Q 386.966 15.039 390.482 14.746 A 23.256 23.256 0 0 1 392.414 14.666 Q 395.01 14.666 397.709 15.234 A 11.595 11.595 0 0 1 400.744 14.642 Q 401.04 14.626 401.336 14.626 A 10.686 10.686 0 0 1 402.933 14.746 A 7.963 7.963 0 0 1 407.405 17.022 A 9.762 9.762 0 0 1 407.474 17.09 A 6.493 6.493 0 0 0 407.595 18.035 Q 407.798 19.006 408.304 19.58 A 4.121 4.121 0 0 0 409.717 20.609 A 5.117 5.117 0 0 0 410.209 20.801 Q 410.99 23.633 410.355 25.781 Q 409.72 27.93 408.255 29.59 A 16.82 16.82 0 0 1 405.52 32.062 A 19.202 19.202 0 0 1 404.789 32.568 A 111.507 111.507 0 0 1 400.834 35.059 A 4.995 4.995 0 0 1 399.769 36.223 A 4.647 4.647 0 0 1 399.418 36.475 A 7.221 7.221 0 0 0 397.904 37.793 A 38.484 38.484 0 0 1 390.531 44.971 A 158.909 158.909 0 0 1 381.986 50.879 A 411.011 411.011 0 0 0 375.785 55.029 A 66.192 66.192 0 0 0 369.877 59.57 L 368.9 60.449 L 369.779 61.426 A 4.084 4.084 0 0 0 370.985 62.277 A 3.67 3.67 0 0 0 372.513 62.598 Q 373.392 62.598 374.222 62.354 A 23.36 23.36 0 0 0 375.834 61.816 A 11.81 11.81 0 0 0 376.48 61.636 Q 376.871 61.514 377.201 61.377 A 3.6 3.6 0 0 1 377.661 61.219 Q 377.914 61.152 378.146 61.137 A 2.034 2.034 0 0 1 378.275 61.133 L 379.545 61.133 Q 380.326 60.645 381.107 60.352 Q 381.888 60.059 382.67 59.863 A 50.063 50.063 0 0 0 383.426 59.668 A 41.533 41.533 0 0 0 384.134 59.473 Q 384.75 59.297 385.445 58.883 A 8.303 8.303 0 0 0 385.599 58.789 A 14.049 14.049 0 0 0 388.807 58.431 A 12.719 12.719 0 0 0 389.652 58.203 A 49.861 49.861 0 0 0 393.448 56.86 A 53.798 53.798 0 0 0 393.509 56.836 A 41.457 41.457 0 0 1 395.523 56.056 A 37.566 37.566 0 0 1 395.804 55.957 A 13.958 13.958 0 0 1 398.099 55.371 A 3.772 3.772 0 0 0 399.027 56.201 A 49.928 49.928 0 0 0 399.552 56.531 A 42.235 42.235 0 0 0 400.052 56.836 A 6.591 6.591 0 0 1 400.552 57.173 Q 401.055 57.551 401.269 57.904 A 1.057 1.057 0 0 1 401.42 58.301 L 401.712 61.035 L 403.568 59.18 Q 404.667 60.096 404.821 61.226 A 2.722 2.722 0 0 1 404.837 61.377 A 6.239 6.239 0 0 1 404.856 61.76 Q 404.877 62.891 404.545 64.551 A 20.439 20.439 0 0 1 399.245 68.337 A 25.321 25.321 0 0 1 396.732 69.434 A 188.571 188.571 0 0 1 389.531 71.963 A 218.614 218.614 0 0 1 386.771 72.852 A 205.497 205.497 0 0 1 384.574 73.438 A 24.584 24.584 0 0 0 382.377 74.121 L 382.474 72.461 L 380.326 73.828 A 4.626 4.626 0 0 0 380.012 74.084 Q 379.863 74.218 379.744 74.352 A 2.688 2.688 0 0 0 379.691 74.414 Q 379.447 74.707 379.252 75 A 76.651 76.651 0 0 1 377.61 75.424 Q 376.876 75.604 376.236 75.742 A 31.777 31.777 0 0 1 375.052 75.977 A 153.507 153.507 0 0 0 373.441 76.27 A 128.065 128.065 0 0 0 371.927 76.563 A 53.796 53.796 0 0 1 370.316 76.917 A 43.714 43.714 0 0 1 368.802 77.197 A 18.043 18.043 0 0 1 366.696 77.418 A 21.374 21.374 0 0 1 365.677 77.441 L 364.603 77.441 A 7.117 7.117 0 0 1 363.431 77.344 A 17.31 17.31 0 0 0 362.919 77.148 A 22.027 22.027 0 0 0 362.357 76.953 Z" id="6" vector-effect="non-scaling-stroke"/><path d="M 459.525 64.941 L 459.33 65.332 A 14.36 14.36 0 0 1 458.402 67.4 A 18.055 18.055 0 0 1 457.621 68.701 Q 456.498 70.41 454.984 71.729 Q 453.47 73.047 451.615 73.926 A 10.167 10.167 0 0 1 447.709 74.902 Q 446.772 74.686 446.288 74.444 A 1.737 1.737 0 0 1 446 74.268 Q 445.56 73.926 445.072 73.633 Q 444.779 73.438 444.535 73.291 Q 444.325 73.165 444.151 73.075 A 4.649 4.649 0 0 0 444.095 73.047 L 442.923 72.559 L 443.314 71.289 A 2.864 2.864 0 0 0 443.367 71.026 Q 443.458 70.431 443.216 70.068 A 2.879 2.879 0 0 0 443.019 69.811 Q 442.795 69.546 442.426 69.196 A 16.797 16.797 0 0 0 442.045 68.848 L 441.459 68.262 A 4.329 4.329 0 0 1 441.164 67.937 A 3.389 3.389 0 0 1 440.97 67.676 L 439.31 65.82 L 441.947 65.137 A 12.548 12.548 0 0 0 443.13 64.746 Q 444.291 64.292 444.916 63.708 A 2.766 2.766 0 0 0 445.218 63.379 A 2.722 2.722 0 0 0 445.634 62.572 Q 445.945 61.645 445.879 60.179 A 13.206 13.206 0 0 0 445.853 59.766 A 12.584 12.584 0 0 0 444.916 59.613 Q 443.907 59.489 443.098 59.582 A 5.015 5.015 0 0 0 442.582 59.668 A 46.492 46.492 0 0 0 439.896 60.352 A 43.58 43.58 0 0 1 436.332 61.182 A 19.38 19.38 0 0 1 434.066 61.467 A 24.516 24.516 0 0 1 432.377 61.523 A 22.19 22.19 0 0 1 431.438 61.504 A 18.215 18.215 0 0 1 430.912 61.475 Q 430.228 61.426 429.447 61.328 L 428.47 61.133 A 11.231 11.231 0 0 0 428.397 60.763 Q 428.238 60.031 428.08 59.912 A 3.421 3.421 0 0 1 427.836 59.71 A 4.12 4.12 0 0 1 427.689 59.57 Q 427.201 59.082 426.664 58.252 A 2.168 2.168 0 0 1 426.333 57.3 Q 426.293 56.943 426.349 56.534 A 4.291 4.291 0 0 1 426.42 56.152 A 5.116 5.116 0 0 1 425.994 55.164 A 4.224 4.224 0 0 1 425.834 54.395 A 10.943 10.943 0 0 0 424.955 56.836 L 424.564 57.813 L 423.587 58.008 A 0.427 0.427 0 0 0 423.442 58.131 Q 423.352 58.247 423.295 58.447 A 3.832 3.832 0 0 0 423.247 58.628 Q 423.206 58.804 423.199 58.93 A 0.905 0.905 0 0 0 423.197 58.984 L 422.709 60.645 A 3.931 3.931 0 0 1 422.464 60.87 A 3.267 3.267 0 0 1 422.318 60.986 A 3.421 3.421 0 0 0 422.074 61.189 A 4.12 4.12 0 0 0 421.927 61.328 Q 421.732 62.207 421.439 63.086 A 50.046 50.046 0 0 1 421.036 64.248 A 42.728 42.728 0 0 1 420.853 64.746 A 28.314 28.314 0 0 0 420.122 66.892 A 25.495 25.495 0 0 0 420.023 67.236 Q 419.681 68.457 419.779 69.629 L 419.388 70.703 A 4.384 4.384 0 0 1 418.757 71.327 A 3.693 3.693 0 0 1 418.314 71.631 A 20.689 20.689 0 0 1 417.142 72.266 Q 416.978 72.43 416.71 72.56 A 2.504 2.504 0 0 1 416.605 72.607 A 18.384 18.384 0 0 0 416.443 72.678 Q 416.214 72.778 416.068 72.852 L 415.775 73.926 L 414.603 74.121 A 108.382 108.382 0 0 0 414.106 74.213 Q 413.491 74.327 413.163 74.398 A 11.258 11.258 0 0 0 413.089 74.414 Q 412.65 74.512 412.064 74.512 L 411.087 74.414 A 73.094 73.094 0 0 1 410.581 73.996 Q 410.034 73.54 409.648 73.197 A 19.574 19.574 0 0 1 409.427 72.998 A 8.576 8.576 0 0 0 408.641 72.362 A 10.72 10.72 0 0 0 408.06 71.973 A 12.414 12.414 0 0 1 407.691 71.456 Q 407.158 70.663 407.084 70.215 A 38.811 38.811 0 0 0 406.986 69.653 A 29.799 29.799 0 0 0 406.888 69.141 Q 406.76 68.756 406.695 68.456 A 3.344 3.344 0 0 1 406.644 68.164 A 1.472 1.472 0 0 0 406.597 67.931 Q 406.561 67.809 406.504 67.713 A 0.687 0.687 0 0 0 406.4 67.578 L 405.13 66.406 L 406.205 65.527 L 406.302 63.867 Q 408.255 58.887 410.453 54.297 A 1161.873 1161.873 0 0 1 414.994 44.922 A 137.187 137.187 0 0 0 416.507 41.797 A 137.187 137.187 0 0 1 418.021 38.672 Q 417.93 38.397 417.924 38.037 A 3.052 3.052 0 0 1 417.923 37.988 A 1.865 1.865 0 0 1 417.961 37.628 Q 417.995 37.453 418.062 37.261 A 3.541 3.541 0 0 1 418.119 37.109 A 47.511 47.511 0 0 0 418.869 35.912 Q 419.268 35.254 419.595 34.659 A 25.574 25.574 0 0 0 419.877 34.131 A 204.966 204.966 0 0 0 421.244 31.445 A 74.317 74.317 0 0 1 422.855 28.223 A 21.05 21.05 0 0 1 423.928 26.434 A 27.041 27.041 0 0 1 424.955 25 L 426.517 24.316 A 14.936 14.936 0 0 0 426.751 24.236 Q 426.854 24.2 426.966 24.159 A 26.877 26.877 0 0 0 427.201 24.072 A 2.277 2.277 0 0 1 427.727 23.946 A 2.919 2.919 0 0 1 428.08 23.926 L 429.545 24.121 A 14.618 14.618 0 0 0 434.33 20.557 A 41.404 41.404 0 0 0 436.339 18.116 Q 437.286 16.878 438.252 15.451 A 67.813 67.813 0 0 0 438.529 15.039 L 439.505 13.672 L 440.775 14.453 A 3.512 3.512 0 0 0 441.157 14.649 Q 441.565 14.83 442.142 14.99 A 86.792 86.792 0 0 1 443.045 15.247 A 102.558 102.558 0 0 1 443.998 15.527 A 42.382 42.382 0 0 1 446.499 16.161 A 36.724 36.724 0 0 1 447.318 16.406 A 7.077 7.077 0 0 1 448.654 16.971 A 5.413 5.413 0 0 1 449.857 17.871 Q 450.443 19.434 450.541 20.215 Q 450.638 20.996 450.834 21.777 A 117.356 117.356 0 0 1 451.371 25.098 A 32.743 32.743 0 0 1 451.578 26.855 A 44.306 44.306 0 0 1 451.712 28.809 Q 452.201 30.469 452.543 32.08 Q 452.884 33.691 453.177 35.352 A 354.264 354.264 0 0 0 454.032 39.341 A 322.688 322.688 0 0 0 454.154 39.893 Q 454.642 42.09 455.423 44.043 A 10.033 10.033 0 0 1 455.696 44.046 Q 456.241 44.061 456.4 44.141 A 5.312 5.312 0 0 1 457.425 43.848 A 27.217 27.217 0 0 1 457.961 43.756 Q 458.283 43.704 458.646 43.652 L 459.72 43.555 L 460.111 44.531 Q 460.193 44.943 460.832 45.355 A 4.53 4.53 0 0 0 461.087 45.508 A 6.598 6.598 0 0 1 461.748 45.59 Q 462.522 45.729 462.943 46.045 Q 463.529 46.484 464.017 46.973 Q 464.38 47.336 464.743 47.53 A 2.231 2.231 0 0 0 464.798 47.559 L 466.263 48.145 L 465.482 49.609 A 11.588 11.588 0 0 1 464.121 51.541 A 15.419 15.419 0 0 1 462.699 52.979 A 17.202 17.202 0 0 1 458.646 55.664 A 15.827 15.827 0 0 1 458.763 56.498 A 13.684 13.684 0 0 1 458.793 56.787 A 4.619 4.619 0 0 0 458.911 57.478 A 5.683 5.683 0 0 0 459.037 57.91 Q 459.33 59.57 459.525 61.328 A 16.127 16.127 0 0 1 459.623 63.11 A 17.483 17.483 0 0 1 459.525 64.941 Z M 438.627 34.766 L 438.041 35.742 A 40.192 40.192 0 0 0 435.193 39.093 A 46.485 46.485 0 0 0 434.281 40.332 Q 432.474 42.871 431.205 45.117 L 430.033 46.875 A 25.471 25.471 0 0 0 428.959 48.633 A 7.167 7.167 0 0 1 429.741 48.545 A 6.172 6.172 0 0 1 430.082 48.535 A 5.331 5.331 0 0 0 430.922 48.471 A 4.788 4.788 0 0 0 431.107 48.438 Q 434.037 48.242 436.429 47.998 A 48.152 48.152 0 0 0 438.951 47.669 Q 440.284 47.462 441.752 47.168 A 502.546 502.546 0 0 0 440.671 42.636 A 568.496 568.496 0 0 0 440.287 41.064 Q 439.505 37.891 438.627 34.766 Z" id="7" vector-effect="non-scaling-stroke"/></g></svg>